<svg data-v-0dd9719b="" version="1.0" xmlns="http://www.w3.org/2000/svg" xmlns:xlink="http://www.w3.org/1999/xlink" width="100%" height="100%" viewBox="0 0 340.000000 250.000000" preserveAspectRatio="xMidYMid meet" color-interpolation-filters="sRGB" style="margin: auto;"> <rect data-v-0dd9719b="" x="0" y="0" width="100%" height="100%" fill="#fff" fill-opacity="1" class="background"></rect> <rect data-v-0dd9719b="" x="0" y="0" width="100%" height="100%" fill="url(#watermark)" fill-opacity="1" class="watermarklayer"></rect> <g data-v-0dd9719b="" fill="#f29600" class="icon-text-wrapper icon-svg-group iconsvg" transform="translate(51.18000030517578,95.38616371154785)"><g class="iconsvg-imagesvg" transform="translate(0,0)"><g><rect fill="#f29600" fill-opacity="0" stroke-width="2" x="0" y="0" width="60" height="59.22767116796968" class="image-rect"></rect> <svg x="0" y="0" width="60" height="59.22767116796968" filtersec="colorsb5178342651" class="image-svg-svg primary" style="overflow: visible;"><svg version="1.1" id="cube" xmlns="http://www.w3.org/2000/svg" xmlns:xlink="http://www.w3.org/1999/xlink" x="0px" y="0px" viewBox="5.920000076293945 2.4600000381469727 484.6600036621094 478.4200134277344" enable-background="new 0 0 490.58 483.33" xml:space="preserve">
<path fill="#F29600" d="M409.24,222.6l-43.04-74.56c-67.75,4.05-143.94,36.33-210.24,72.97l-51.01,88.33
	C199.96,257.84,312.19,214.03,409.24,222.6z M430.82,348.16c21.27,2.86,41.2,7.99,59.76,15.33l-51.59-89.36
	c-7.71-2.07-15.71-3.7-24.06-4.82c-110.98-14.99-253.47,56.04-356.57,120.78L5.92,480.88H7.7
	C128.08,408.09,294.42,329.78,430.82,348.16z M282.13,2.46l-84.41,146.22c46.78-21.08,95.99-37.72,143.4-44.05L282.13,2.46z"></path>
</svg></svg> <!----></g></g> <g transform="translate(67,0.5775890350341797)"><g data-gra="path-name" fill-rule="" class="tp-name iconsvg-namesvg" transform="translate(0,0)"><g transform="scale(1)"><g><path d="M21.73-36.13L23.31-36.13 23.31 1.53 37.21 1.53 37.21-28.75 38.74-28.75 38.74 3.1 6.3 3.1 6.3-28.8 7.83-28.8 7.83 1.53 21.73 1.53 21.73-36.13ZM47.92-34.16L86.98-34.16 86.98-32.58 73.08-32.58 73.08-24.3 84.1-24.3 84.1 2.97 50.58 2.97 50.58-24.3 61.25-24.3 61.25-32.58 47.92-32.58 47.92-34.16ZM52.16-22.72L52.16 1.35 82.57 1.35 82.57-8.23Q81.18-8.19 79.47-8.23 77.76-8.28 76.32-8.37L76.32-8.37Q74.75-8.46 73.82-8.69 72.9-8.91 72.38-9.43 71.86-9.95 71.71-10.82 71.55-11.7 71.55-13.14L71.55-13.14 71.55-22.72 62.77-22.72 62.77-21.2Q62.77-15.16 61.25-12.06L61.25-12.06Q59.72-8.96 54.13-5.54L54.13-5.54 53.19-6.84Q55.89-8.41 57.51-9.9 59.13-11.38 59.8-12.78L59.8-12.78Q60.48-14.22 60.86-16.34 61.25-18.45 61.25-21.29L61.25-21.29 61.25-22.72 52.16-22.72ZM82.57-22.72L73.08-22.72 73.08-13.63Q73.08-12.46 73.17-11.74 73.26-11.03 73.64-10.62 74.03-10.21 74.75-10.04 75.47-9.86 76.68-9.86L76.68-9.86Q78.25-9.81 79.67-9.86 81.09-9.9 82.57-9.99L82.57-9.99 82.57-22.72ZM62.77-32.58L62.77-24.3 71.55-24.3 71.55-32.58 62.77-32.58ZM107.01-5.58L112.36-5.58 112.36-23.36 107.91-23.36 107.91-24.7 112.36-24.7 112.36-28.53 113.85-28.53 113.85-24.7 125.73-24.7 125.73-28.53 127.26-28.53 127.26-24.7 131.99-24.7 131.99-23.36 127.26-23.36 127.26-5.58 132.97-5.58 132.97-4.18 107.01-4.18 107.01-5.58ZM93.02 4.86L91.62 4.14Q93.15 1.57 94.07-0.99 95-3.55 95.49-5.8L95.49-5.8Q95.98-8.1 96.28-11.54 96.57-14.98 96.66-19.93L96.66-19.93 96.66-27.77 92.47-27.77 92.47-29.25 107.46-29.25 107.46-27.77 98.19-27.77 98.19-20.11 105.66-20.11Q105.75-14.58 105.57-9.97 105.39-5.35 105.16-1.26L105.16-1.26Q105.08 0.67 104.49 1.55 103.91 2.43 102.02 2.61L102.02 2.61Q99.94 2.79 98.23 2.75L98.23 2.75 98.01 1.03Q99 1.13 99.9 1.17 100.8 1.21 101.47 1.17L101.47 1.17Q102.87 1.13 103.25 0.58 103.64 0.04 103.72-1.4L103.72-1.4Q103.86-2.97 103.97-5.04 104.08-7.11 104.15-9.38 104.22-11.65 104.27-14.02 104.31-16.38 104.27-18.63L104.27-18.63 98.14-18.63Q98.01-14.13 97.69-10.89 97.38-7.65 96.89-5.4L96.89-5.4Q96.39-2.97 95.47-0.4 94.55 2.16 93.02 4.86L93.02 4.86ZM113.85-17.14L113.85-12.06 125.73-12.06 125.73-17.14 113.85-17.14ZM113.85-10.62L113.85-5.58 125.73-5.58 125.73-10.62 113.85-10.62ZM113.85-23.36L113.85-18.54 125.73-18.54 125.73-23.36 113.85-23.36ZM108.27-25.92L107.14-26.95Q109.35-29.25 111.02-31.84 112.68-34.42 113.76-37.13L113.76-37.13 115.16-36.59Q114.03-34.06 112.86-32.04L112.86-32.04 132.7-32.04 132.7-30.64 112-30.64Q110.43-28.21 108.27-25.92L108.27-25.92ZM107.41 5.26L106.47 4Q108.9 2.65 111.42 1.03 113.94-0.58 116.23-2.34L116.23-2.34 117.22-1.13Q114.88 0.77 112.5 2.25 110.11 3.73 107.41 5.26L107.41 5.26ZM122.49-1.03L123.34-2.21Q125.14-1.17 128.07 0.77L128.07 0.77Q129.56 1.8 130.66 2.61 131.76 3.42 132.57 4.18L132.57 4.18 131.63 5.35Q130.77 4.54 129.74 3.73 128.7 2.92 127.26 1.93L127.26 1.93Q125.82 0.9 124.6 0.18 123.39-0.54 122.49-1.03L122.49-1.03ZM98.14-36.85L99.63-37.35Q100.26-35.87 100.94-34.16 101.61-32.45 102.28-30.55L102.28-30.55 100.75-30.11Q100.22-31.81 99.54-33.48 98.86-35.14 98.14-36.85L98.14-36.85ZM140.35 1.08L140.09-0.54Q141.03-0.77 141.55-1.01 142.06-1.26 142.47-1.67L142.47-1.67Q145.62-4.81 149.49-10.35L149.49-10.35Q153.04-15.3 155.07-19.57L155.07-19.57 137.97-19.57 137.97-21.15 176.94-21.15 176.94-19.57 157-19.57Q154.98-15.16 151.16-9.81L151.16-9.81Q149.09-6.93 147.22-4.61 145.35-2.29 143.64-0.58L143.64-0.58Q147.91-0.67 151.56-0.81 155.2-0.94 158.44-1.13 161.69-1.3 164.59-1.55 167.49-1.8 170.28-2.07L170.28-2.07Q169.74-2.83 169.13-3.6 168.53-4.37 167.89-5.22L167.89-5.22Q165.96-7.74 164.41-9.65 162.85-11.56 161.55-12.91L161.55-12.91 162.76-13.9Q164.07-12.6 165.67-10.73 167.26-8.87 169.2-6.34L169.2-6.34Q171.13-3.82 172.6-1.73 174.06 0.36 175.05 1.93L175.05 1.93 173.7 2.97Q173.2 2.16 172.64 1.3 172.08 0.45 171.41-0.49L171.41-0.49Q168.03-0.18 164.72 0.07 161.41 0.32 157.72 0.49 154.03 0.67 149.78 0.83 145.53 0.99 140.35 1.08L140.35 1.08ZM141.71-33.48L173.2-33.48 173.2-31.9 141.71-31.9 141.71-33.48Z" transform="translate(-6.300000190734863, 37.349998474121094)"></path></g> <!----> <!----> <!----> <!----> <!----> <!----> <!----></g></g> <g data-gra="path-slogan" fill-rule="" class="tp-slogan iconsvg-slogansvg" fill="#f29600" transform="translate(5,48.69999694824219)"><rect x="0" height="1" y="4.185000419616699" width="35.19917297363281"></rect> <rect height="1" y="4.185000419616699" width="35.19917297363281" x="125.44082641601562"></rect> <g transform="translate(38.19917297363281,0)"><g transform="scale(1)"><path d="M7.17-6.09L7.17-6.09L6.09-6.09Q6-7.73 3.94-7.83L3.94-7.83Q2.02-7.78 2.02-6.33L2.02-6.33Q2.02-5.39 3.05-5.25L3.05-5.25L5.48-4.69Q7.41-4.22 7.41-2.34L7.41-2.34Q7.36 0.05 4.03 0.14L4.03 0.14Q2.20 0.14 1.45-0.61L1.45-0.61Q0.52-1.31 0.56-2.77L0.56-2.77L1.69-2.77Q1.73-0.80 4.03-0.75L4.03-0.75Q6.28-0.80 6.33-2.20L6.33-2.20Q6.52-3.38 4.45-3.75L4.45-3.75L2.67-4.13Q0.84-4.64 0.84-6.19L0.84-6.19Q0.98-8.72 3.84-8.81L3.84-8.81Q7.08-8.81 7.17-6.09ZM10.03-5.06L14.53-5.06L14.53-8.58L15.70-8.58L15.70 0L14.53 0L14.53-3.98L10.03-3.98L10.03 0L8.86 0L8.86-8.58L10.03-8.58L10.03-5.06ZM23.16 0L22.31-2.48L18.84-2.48L17.95 0L16.78 0L20.02-8.58L21.33-8.58L24.42 0L23.16 0ZM20.58-7.31L19.22-3.52L21.89-3.52L20.63-7.31L20.58-7.31ZM26.86-8.58L31.17-1.64L31.17-8.58L32.30-8.58L32.30 0L30.98 0L26.63-6.94L26.58-6.94L26.58 0L25.45 0L25.45-8.58L26.86-8.58ZM40.83-8.58L37.92-4.41L40.97 0L39.52 0L37.17-3.52L34.83 0L33.42 0L36.52-4.41L33.61-8.58L35.06-8.58L37.22-5.30L39.42-8.58L40.83-8.58ZM42.23-8.58L43.41-8.58L43.41 0L42.23 0L42.23-8.58ZM53.72-1.08L52.83-1.78L53.44-2.48L54.52-1.64Q55.50-2.63 55.50-4.27L55.50-4.27Q55.31-7.64 52.50-7.83L52.50-7.83Q49.64-7.69 49.50-4.27L49.50-4.27Q49.64-0.94 52.50-0.80L52.50-0.80Q53.20-0.80 53.72-1.08L53.72-1.08ZM55.45-0.94L56.58-0.05L56.02 0.56L54.70-0.33Q53.86 0.14 52.50 0.14L52.50 0.14Q48.56 0 48.28-4.27L48.28-4.27Q48.52-8.72 52.50-8.81L52.50-8.81Q56.39-8.67 56.67-4.27L56.67-4.27Q56.63-2.20 55.45-0.94L55.45-0.94ZM58.22-8.58L59.39-8.58L59.39 0L58.22 0L58.22-8.58ZM68.30-8.58L65.06-3.47L65.06 0L63.89 0L63.89-3.47L60.66-8.58L62.02-8.58L64.45-4.45L66.94-8.58L68.30-8.58ZM75-3.19L75-8.58L76.17-8.58L76.17-3.05Q76.03 0.05 72.66 0.14L72.66 0.14Q69.52 0.05 69.38-2.86L69.38-2.86L69.38-8.58L70.55-8.58L70.55-3.19Q70.59-0.84 72.70-0.80L72.70-0.80Q75-0.84 75-3.19L75-3.19ZM79.36-8.58L83.67-1.64L83.67-8.58L84.80-8.58L84.80 0L83.48 0L79.13-6.94L79.08-6.94L79.08 0L77.95 0L77.95-8.58L79.36-8.58Z" transform="translate(-0.5602678571428572, 8.8125)"></path></g></g></g></g></g><defs v-gra="od"></defs></svg>